<svg xmlns="http://www.w3.org/2000/svg" viewBox="185 45 680 640" width="512" height="512">
  <defs>
    <style>
      .sp-black { fill: #000000; }
      .sp-blue { fill: #0056FF; }
      .sp-white { fill: #FFFFFF; stroke: #FFFFFF; stroke-width: 3; }
      .sp-prong { fill: #000000; }
    </style>
  </defs>

  <g id="sp-brand-logo">
    <!-- 1. Stylized Black Bold "S" -->
    <path 
      class="sp-black"
      d="M 590 85
         L 370 85
         C 260 85 220 145 220 220
         C 220 295 270 330 365 345
         L 440 355
         C 490 360 505 382 505 415
         C 505 455 475 480 405 480
         L 245 480
         L 215 565
         L 415 565
         C 550 565 600 510 600 410
         C 600 320 540 280 435 265
         L 360 255
         C 310 248 305 225 305 200
         C 305 170 330 155 390 155
         L 590 155
         Z"
    />

    <!-- 2. Stylized Vibrant Electric Blue "P" -->
    <path 
      class="sp-blue"
      d="M 525 175
         L 670 175
         C 775 175 835 225 835 320
         C 835 410 770 460 660 460
         L 605 460
         L 605 615
         C 605 635 585 645 565 645
         L 525 645
         C 525 600 525 300 525 175
         Z
         M 605 245
         L 655 245
         C 715 245 745 270 745 320
         C 745 365 715 390 655 390
         L 605 390
         Z"
    />

    <!-- 3. Central Electrical Plug & Negative Space Cable Silhouette -->
    <!-- Prongs -->
    <rect class="sp-prong" x="473" y="210" width="18" height="60" rx="6" />
    <rect class="sp-prong" x="532" y="210" width="18" height="60" rx="6" />

    <!-- Plug base neck/crossbar -->
    <rect class="sp-black" x="452" y="270" width="120" height="15" rx="5" />

    <!-- White Plug Body -->
    <path 
      class="sp-white"
      d="M 452 285
         L 572 285
         C 596 285 602 308 602 332
         C 602 388 568 438 528 444
         L 528 645
         L 495 645
         L 495 444
         C 455 438 422 388 422 332
         C 422 308 428 285 452 285
         Z"
    />
  </g>
</svg>